<svg xmlns="http://www.w3.org/2000/svg" xmlns:xlink="http://www.w3.org/1999/xlink" contentStyleType="text/css" height="623px" preserveAspectRatio="none" style="width:3764px;height:623px;background:#FFFFFF;" version="1.1" viewBox="0 0 3764 623" width="3764px" zoomAndPan="magnify"><title>Overall Architecture of the Image Search Application</title><defs/><g><text fill="#000000" font-family="Verdana" font-size="22" font-weight="bold" lengthAdjust="spacing" textLength="657.1426" x="1549.2134" y="35.4209">Overall Architecture of the Image Search Application</text><!--cluster api--><g id="cluster_api"><rect fill="#FFFFFF" height="286.59" rx="2.5" ry="2.5" style="stroke:#000000;stroke-width:1;" width="545" x="12" y="320.2094"/><text fill="#000000" font-family="Verdana" font-size="14" font-weight="bold" lengthAdjust="spacing" textLength="89.3799" x="239.8101" y="335.2045">API Service</text></g><!--cluster dl--><g id="cluster_dl"><rect fill="#FFFFFF" height="103.29" rx="2.5" ry="2.5" style="stroke:#000000;stroke-width:1;" width="595" x="1933" y="320.2094"/><text fill="#000000" font-family="Verdana" font-size="14" font-weight="bold" lengthAdjust="spacing" textLength="157.5" x="2151.75" y="335.2045">Downloader Service</text></g><!--cluster emb--><g id="cluster_emb"><rect fill="#FFFFFF" height="103.29" rx="2.5" ry="2.5" style="stroke:#000000;stroke-width:1;" width="650" x="998" y="320.2094"/><text fill="#000000" font-family="Verdana" font-size="14" font-weight="bold" lengthAdjust="spacing" textLength="236.4619" x="1204.769" y="335.2045">Embedding Generator Service</text></g><!--cluster mq--><g id="cluster_mq"><rect fill="#FFFFFF" height="103.3" rx="2.5" ry="2.5" style="stroke:#000000;stroke-width:1;" width="502" x="1688" y="503.4994"/><text fill="#000000" font-family="Verdana" font-size="14" font-weight="bold" lengthAdjust="spacing" textLength="77.5947" x="1900.2026" y="518.4945">RabbitMQ</text></g><!--cluster pg--><g id="cluster_pg"><path d="M2511,498.4994 C2511,488.4994 2600,488.4994 2600,488.4994 C2600,488.4994 2689,488.4994 2689,498.4994 L2689,596.7994 C2689,606.7994 2600,606.7994 2600,606.7994 C2600,606.7994 2511,606.7994 2511,596.7994 L2511,498.4994 " fill="#FFFFFF" style="stroke:#000000;stroke-width:1;"/><path d="M2511,498.4994 C2511,508.4994 2600,508.4994 2600,508.4994 C2600,508.4994 2689,508.4994 2689,498.4994 " fill="none" style="stroke:#000000;stroke-width:1;"/><text fill="#000000" font-family="Verdana" font-size="14" font-weight="bold" lengthAdjust="spacing" textLength="69.6582" x="2565.1709" y="523.4945">Postgres</text></g><!--cluster rd--><g id="cluster_rd"><rect fill="#FFFFFF" height="103.3" rx="2.5" ry="2.5" style="stroke:#000000;stroke-width:1;" width="220" x="3066" y="503.4994"/><text fill="#000000" font-family="Verdana" font-size="14" font-weight="bold" lengthAdjust="spacing" textLength="43.4287" x="3154.2856" y="518.4945">Redis</text></g><!--cluster es--><g id="cluster_es"><rect fill="#FFFFFF" height="103.3" rx="2.5" ry="2.5" style="stroke:#000000;stroke-width:1;" width="267" x="616" y="503.4994"/><text fill="#000000" font-family="Verdana" font-size="14" font-weight="bold" lengthAdjust="spacing" textLength="104.3779" x="697.311" y="518.4945">Elasticsearch</text></g><!--entity fastapi--><g id="elem_fastapi"><rect fill="#FFFFFF" height="36.2969" rx="2.5" ry="2.5" style="stroke:#000000;stroke-width:1;" width="154.2373" x="35.88" y="363.2094"/><text fill="#000000" font-family="Verdana" font-size="14" lengthAdjust="spacing" textLength="134.2373" x="45.88" y="386.2045">FastAPI Application</text></g><!--entity api_emb--><g id="elem_api_emb"><rect fill="#FFFFFF" height="36.2969" rx="2.5" ry="2.5" style="stroke:#000000;stroke-width:1;" width="288.6113" x="224.69" y="363.2094"/><text fill="#000000" font-family="Verdana" font-size="14" lengthAdjust="spacing" textLength="268.6113" x="234.69" y="386.2045">EmbeddingService (Text Embeddings)</text></g><!--entity api_metrics--><g id="elem_api_metrics"><rect fill="#FFFFFF" height="36.2969" rx="2.5" ry="2.5" style="stroke:#000000;stroke-width:1;" width="237.1094" x="36.45" y="546.4994"/><text fill="#000000" font-family="Verdana" font-size="14" lengthAdjust="spacing" textLength="217.1094" x="46.45" y="569.4945">Metrics Endpoint (Prometheus)</text></g><!--entity dl_async--><g id="elem_dl_async"><rect fill="#FFFFFF" height="36.2969" rx="2.5" ry="2.5" style="stroke:#000000;stroke-width:1;" width="198.4316" x="1956.78" y="363.2094"/><text fill="#000000" font-family="Verdana" font-size="14" lengthAdjust="spacing" textLength="178.4316" x="1966.78" y="386.2045">Async Image Downloader</text></g><!--entity dl_store--><g id="elem_dl_store"><rect fill="#FFFFFF" height="36.2969" rx="2.5" ry="2.5" style="stroke:#000000;stroke-width:1;" width="294.4766" x="2189.76" y="363.2094"/><text fill="#000000" font-family="Verdana" font-size="14" lengthAdjust="spacing" textLength="274.4766" x="2199.76" y="386.2045">URL Deduplication &amp; Metadata Storage</text></g><!--entity emb_clip--><g id="elem_emb_clip"><rect fill="#FFFFFF" height="36.2969" rx="2.5" ry="2.5" style="stroke:#000000;stroke-width:1;" width="267.8984" x="1022.05" y="363.2094"/><text fill="#000000" font-family="Verdana" font-size="14" lengthAdjust="spacing" textLength="247.8984" x="1032.05" y="386.2045">CLIP-based Embeddings for Images</text></g><!--entity emb_consumer--><g id="elem_emb_consumer"><rect fill="#FFFFFF" height="36.2969" rx="2.5" ry="2.5" style="stroke:#000000;stroke-width:1;" width="279.2461" x="1325.38" y="363.2094"/><text fill="#000000" font-family="Verdana" font-size="14" lengthAdjust="spacing" textLength="259.2461" x="1335.38" y="386.2045">RabbitMQ Consumer for Embeddings</text></g><!--entity mq_dl--><g id="elem_mq_dl"><rect fill="#FFFFFF" height="36.2969" rx="2.5" ry="2.5" style="stroke:#000000;stroke-width:1;" width="193.9063" x="1972.05" y="546.4994"/><text fill="#000000" font-family="Verdana" font-size="14" lengthAdjust="spacing" textLength="173.9063" x="1982.05" y="569.4945">image_downloads queue</text></g><!--entity mq_emb--><g id="elem_mq_emb"><rect fill="#FFFFFF" height="36.2969" rx="2.5" ry="2.5" style="stroke:#000000;stroke-width:1;" width="205.3838" x="1731.31" y="546.4994"/><text fill="#000000" font-family="Verdana" font-size="14" lengthAdjust="spacing" textLength="185.3838" x="1741.31" y="569.4945">image_embeddings queue</text></g><!--entity images table--><g id="elem_images table"><rect fill="#FFFFFF" height="36.2969" rx="2.5" ry="2.5" style="stroke:#000000;stroke-width:1;" width="110.8086" x="2534.6" y="546.4994"/><text fill="#000000" font-family="Verdana" font-size="14" lengthAdjust="spacing" textLength="90.8086" x="2544.6" y="569.4945">images table</text></g><!--entity Bloom Filter Cache--><g id="elem_Bloom Filter Cache"><rect fill="#FFFFFF" height="36.2969" rx="2.5" ry="2.5" style="stroke:#000000;stroke-width:1;" width="152.3916" x="3089.8" y="546.4994"/><text fill="#000000" font-family="Verdana" font-size="14" lengthAdjust="spacing" textLength="132.3916" x="3099.8" y="569.4945">Bloom Filter Cache</text></g><!--entity image_embeddings index--><g id="elem_image_embeddings index"><rect fill="#FFFFFF" height="36.2969" rx="2.5" ry="2.5" style="stroke:#000000;stroke-width:1;" width="200.0723" x="639.96" y="546.4994"/><text fill="#000000" font-family="Verdana" font-size="14" lengthAdjust="spacing" textLength="180.0723" x="649.96" y="569.4945">image_embeddings index</text></g><!--entity user--><g id="elem_user"><ellipse cx="152.9951" cy="180.9094" fill="#FFFFFF" rx="8" ry="8" style="stroke:#000000;stroke-width:1;"/><path d="M152.9951,188.9094 L152.9951,215.9094 M139.9951,196.9094 L165.9951,196.9094 M152.9951,215.9094 L139.9951,230.9094 M152.9951,215.9094 L165.9951,230.9094 " fill="none" style="stroke:#000000;stroke-width:1;"/><text fill="#000000" font-family="Verdana" font-size="14" lengthAdjust="spacing" textLength="31.9102" x="137.04" y="245.9045">User</text></g><!--entity prom--><g id="elem_prom"><rect fill="#FFFFFF" height="36.2969" rx="2.5" ry="2.5" style="stroke:#000000;stroke-width:1;" width="104.1572" x="1596.92" y="192.4094"/><text fill="#000000" font-family="Verdana" font-size="14" lengthAdjust="spacing" textLength="84.1572" x="1606.92" y="215.4045">Prometheus</text></g><!--entity graf--><g id="elem_graf"><rect fill="#FFFFFF" height="36.2969" rx="2.5" ry="2.5" style="stroke:#000000;stroke-width:1;" width="76.1436" x="1610.93" y="58.6094"/><text fill="#000000" font-family="Verdana" font-size="14" lengthAdjust="spacing" textLength="56.1436" x="1620.93" y="81.6045">Grafana</text></g><!--link user to api--><g id="link_user_api"><path d="M140.51,249.3094 C137.57,265.8094 138.17,284.1194 150,296.2094 C164.73,311.2494 512.46,291.1694 529,304.2094 C532.3275,306.8319 535.1423,309.9358 537.5199,313.3661 C538.7087,315.0812 539.7881,316.8779 540.7677,318.7369 C541.0126,319.2016 538.6004,314.2875 538.833,314.7598 " fill="none" id="user-to-api" style="stroke:#000000;stroke-width:1;"/><polygon fill="#000000" points="541.4838,320.1424,541.096,310.3012,539.2748,315.6569,533.9191,313.8356,541.4838,320.1424" style="stroke:#000000;stroke-width:1;"/><text fill="#000000" font-family="Verdana" font-size="13" lengthAdjust="spacing" textLength="345.3633" x="151" y="292.2763">HTTP Queries (e.g. GET /get_image?query_string=...)</text></g><!--link api to es--><g id="link_api_es"><path d="M557.0803,405.8791 C557.1851,406.1321 557.2909,406.3864 557.3978,406.6417 C557.8255,407.6632 558.2705,408.7028 558.733,409.7576 C559.658,411.8672 560.6531,414.0377 561.72,416.2456 C570.255,433.9094 583.385,453.9744 602,464.4994 C626.58,478.3994 834.37,454.3494 856,472.4994 C863.8,479.0469 868.9119,487.8919 872.1863,497.507 C872.5955,498.7089 872.9761,499.9229 873.3297,501.1458 C873.5064,501.7573 873.6764,502.3711 873.8399,502.9867 C873.8808,503.1406 872.4125,497.4874 872.4525,497.6416 " fill="none" id="api-to-es" style="stroke:#000000;stroke-width:1;"/><polygon fill="#000000" points="873.9613,503.4488,875.5696,493.7322,872.704,498.6095,867.8267,495.7438,873.9613,503.4488" style="stroke:#000000;stroke-width:1;"/><text fill="#000000" font-family="Verdana" font-size="13" lengthAdjust="spacing" textLength="245.0513" x="603" y="460.5663">Query embeddings for similar images</text></g><!--link api to prom--><g id="link_api_prom"><path d="M557.0767,370.8299 C557.1678,370.7263 557.2597,370.6219 557.3523,370.5169 C557.5375,370.3069 557.7255,370.094 557.9163,369.8784 C558.6797,369.0161 559.4881,368.1098 560.3402,367.1633 C567.1566,359.5909 576.7631,349.44 588.3813,338.5556 C611.6175,316.7869 642.9,292.0844 676,279.2094 C846.14,213.0194 1413.9601,210.3122 1590.7201,211.1122 " fill="none" id="api-to-prom" style="stroke:#000000;stroke-width:1;"/><polygon fill="#000000" points="1596.72,211.1394,1587.7382,207.0987,1591.7201,211.1167,1587.702,215.0986,1596.72,211.1394" style="stroke:#000000;stroke-width:1;"/><text fill="#000000" font-family="Verdana" font-size="13" lengthAdjust="spacing" textLength="181.3779" x="677" y="292.2763">Expose metrics for scraping</text></g><!--link prom to api--><g id="link_prom_api"><path d="M1596.63,212.7694 C1381.43,218.0094 574.71,240.1994 538,279.2094 C534.1875,283.2619 532.9175,291.4456 533.1695,301.4817 C533.2955,306.4998 533.8021,311.9809 534.5615,317.6403 C534.6565,318.3477 533.9002,313.1191 534.0028,313.8316 " fill="none" id="prom-to-api" style="stroke:#000000;stroke-width:1;"/><polygon fill="#000000" points="534.858,319.7703,537.5344,310.2921,534.1453,314.8214,529.616,311.4323,534.858,319.7703" style="stroke:#000000;stroke-width:1;"/><text fill="#000000" font-family="Verdana" font-size="13" lengthAdjust="spacing" textLength="97.7285" x="539" y="292.2763">Scrape metrics</text></g><!--link dl to mq_dl--><g id="link_dl_mq_dl"><path d="M2512.4448,423.6575 C2512.4014,423.75 2512.3578,423.8424 2512.3139,423.9347 C2512.2262,424.1192 2512.1374,424.3032 2512.0477,424.4867 C2509.1756,430.3581 2505.28,435.6794 2500,439.4994 C2480.46,453.6394 2082.89,430.2894 2066,447.4994 C2040.42,473.5594 2050.4553,515.1922 2059.7353,540.6522 " fill="none" id="dl-to-mq_dl" style="stroke:#000000;stroke-width:1;"/><polygon fill="#000000" points="2061.79,546.2894,2062.4661,536.4637,2060.0777,541.5917,2054.9498,539.2034,2061.79,546.2894" style="stroke:#000000;stroke-width:1;"/><text fill="#000000" font-family="Verdana" font-size="13" lengthAdjust="spacing" textLength="282.1406" x="2067" y="460.5663">Publish image_downloads (URL's From File)</text></g><!--link dl to mq_dl--><g id="link_dl_mq_dl"><path d="M2512.0965,423.6418 C2512.0094,423.8274 2511.9214,424.0124 2511.8325,424.197 C2508.9863,430.1038 2505.155,435.5119 2500,439.4994 C2483.07,452.6094 2424.94,443.0694 2404,447.4994 C2400.37,448.2694 2217.956,511.7554 2125.246,544.0554 " fill="none" id="dl-to-mq_dl-1" style="stroke:#000000;stroke-width:1;"/><polygon fill="#000000" points="2119.58,546.0294,2129.395,546.8457,2124.3016,544.3844,2126.763,539.291,2119.58,546.0294" style="stroke:#000000;stroke-width:1;"/><text fill="#000000" font-family="Verdana" font-size="13" lengthAdjust="spacing" textLength="226.5605" x="2405" y="460.5663">Consume image_downloads queue</text></g><!--link dl to rd--><g id="link_dl_rd"><path d="M2528.4585,382.8009 C2528.7827,382.8184 2529.1159,382.8363 2529.4578,382.8548 C2534.929,383.1502 2542.656,383.5749 2552.3307,384.1256 C2571.68,385.227 2598.8196,386.8324 2631.2836,388.9161 C2696.2116,393.0834 2782.4369,399.1638 2870.2313,406.9506 C3045.82,422.5244 3227.685,444.9244 3258,472.4994 C3265.55,479.3694 3270.595,488.3781 3273.9108,498.057 C3274.3253,499.2669 3274.7127,500.4872 3275.0747,501.7152 C3275.1651,502.0222 3275.254,502.3296 3275.3414,502.6375 C3275.385,502.7914 3273.8204,497.165 3273.8633,497.3191 " fill="none" id="dl-to-rd" style="stroke:#000000;stroke-width:1;"/><polygon fill="#000000" points="3275.4712,503.0997,3276.913,493.3569,3274.1312,498.2825,3269.2056,495.5008,3275.4712,503.0997" style="stroke:#000000;stroke-width:1;"/><text fill="#000000" font-family="Verdana" font-size="13" lengthAdjust="spacing" textLength="284.1465" x="3241" y="460.5663">Check/Set downloaded URLs in Bloom Filter</text></g><!--link dl to pg--><g id="link_dl_pg"><path d="M2528.0654,384.9926 C2528.1788,385.0317 2528.2933,385.0712 2528.4088,385.1112 C2528.6398,385.1912 2528.875,385.2729 2529.1144,385.3563 C2529.5932,385.5233 2530.0885,385.6972 2530.5998,385.8781 C2532.6449,386.602 2534.9459,387.4382 2537.4666,388.3873 C2547.5494,392.1841 2561.1488,397.7888 2575.9625,405.2431 C2605.59,420.1519 2640.075,442.4594 2661,472.4994 C2663.87,476.6206 2666.3381,481.0803 2668.4596,485.7361 C2668.7248,486.318 2668.9846,486.9031 2669.2391,487.4909 C2669.3663,487.7848 2667.1596,482.5514 2667.2842,482.8466 " fill="none" id="dl-to-pg" style="stroke:#000000;stroke-width:1;"/><polygon fill="#000000" points="2669.6168,488.3746,2669.8032,478.5276,2667.6729,483.768,2662.4325,481.6377,2669.6168,488.3746" style="stroke:#000000;stroke-width:1;"/><text fill="#000000" font-family="Verdana" font-size="13" lengthAdjust="spacing" textLength="258.6606" x="2653" y="460.5663">Store image metadata (after download)</text></g><!--link dl to mq_emb--><g id="link_dl_mq_emb"><path d="M2512.4705,423.6918 C2512.4271,423.7842 2512.3834,423.8766 2512.3395,423.9688 C2512.2516,424.1532 2512.1628,424.3371 2512.073,424.5205 C2509.1981,430.3881 2505.295,435.6994 2500,439.4994 C2483.91,451.0494 1800.93,433.4194 1787,447.4994 C1759.47,475.3494 1789.834,517.0379 1812.694,541.9579 " fill="none" id="dl-to-mq_emb" style="stroke:#000000;stroke-width:1;"/><polygon fill="#000000" points="1816.75,546.3794,1813.6137,537.0432,1813.37,542.6948,1807.7184,542.4512,1816.75,546.3794" style="stroke:#000000;stroke-width:1;"/><text fill="#000000" font-family="Verdana" font-size="13" lengthAdjust="spacing" textLength="259.3271" x="1788" y="460.5663">Publish tasks for embedding generation</text></g><!--link emb_consumer to mq_emb--><g id="link_emb_consumer_mq_emb"><path d="M1460.53,399.9594 C1456.91,418.8294 1454.86,448.2594 1472,464.4994 C1482.29,474.2494 1713.78,467.3994 1727,472.4994 C1766.61,487.7994 1797.9385,519.8256 1816.4185,541.7056 " fill="none" id="emb_consumer-to-mq_emb" style="stroke:#000000;stroke-width:1;"/><polygon fill="#000000" points="1820.29,546.2894,1817.5386,536.8326,1817.0637,542.4695,1811.4268,541.9947,1820.29,546.2894" style="stroke:#000000;stroke-width:1;"/><text fill="#000000" font-family="Verdana" font-size="13" lengthAdjust="spacing" textLength="251.6973" x="1473" y="460.5663">Consume embedding generation tasks</text></g><!--link emb_clip to es--><g id="link_emb_clip_es"><path d="M1128.8,399.8994 C1094.09,422.2944 1032.065,462.3119 978.0213,497.1806 C950.9994,514.615 925.9728,530.7622 907.3536,542.7758 C898.044,548.7826 890.3362,553.756 884.7818,557.3402 C884.4346,557.5642 884.0959,557.7828 883.7657,557.9958 C883.6006,558.1024 888.4791,554.9543 888.3183,555.0581 " fill="none" id="emb_clip-to-es" style="stroke:#000000;stroke-width:1;"/><polygon fill="#000000" points="883.2768,558.3113,893.0079,556.7924,887.478,555.6003,888.6702,550.0705,883.2768,558.3113" style="stroke:#000000;stroke-width:1;"/><text fill="#000000" font-family="Verdana" font-size="13" lengthAdjust="spacing" textLength="234.7998" x="1049" y="460.5663">Index computed image embeddings</text></g><!--link prom to dl--><g id="link_prom_dl"><path d="M1701.3,213.8394 C1877.12,221.9794 2439.31,251.9094 2500,304.2094 C2503.21,306.9744 2505.9358,310.1863 2508.2476,313.6962 C2509.4034,315.4512 2510.4558,317.2807 2511.4135,319.1662 C2511.5332,319.4019 2509.0032,314.2545 2509.12,314.4918 " fill="none" id="prom-to-dl" style="stroke:#000000;stroke-width:1;"/><polygon fill="#000000" points="2511.7682,319.8758,2511.3852,310.0344,2509.5614,315.3892,2504.2066,313.5653,2511.7682,319.8758" style="stroke:#000000;stroke-width:1;"/><text fill="#000000" font-family="Verdana" font-size="13" lengthAdjust="spacing" textLength="97.7285" x="2480" y="292.2763">Scrape metrics</text></g><!--link prom to emb--><g id="link_prom_emb"><path d="M1625.03,229.0194 C1610.43,241.2194 1593.07,258.9294 1585,279.2094 C1582.21,286.2294 1580.27,290.3094 1585,296.2094 C1595.26,308.9894 1609.26,292.7694 1621,304.2094 C1624.025,307.1569 1626.5959,310.507 1628.7784,314.1191 C1629.8697,315.9252 1630.8638,317.7967 1631.7691,319.7161 C1631.8256,319.8361 1629.3546,314.5144 1629.4105,314.6348 " fill="none" id="prom-to-emb" style="stroke:#000000;stroke-width:1;"/><polygon fill="#000000" points="1631.9378,320.0766,1631.7748,310.2291,1629.8317,315.5417,1624.519,313.5987,1631.9378,320.0766" style="stroke:#000000;stroke-width:1;"/><text fill="#000000" font-family="Verdana" font-size="13" lengthAdjust="spacing" textLength="97.7285" x="1586" y="292.2763">Scrape metrics</text></g><!--link prom to mq--><g id="link_prom_mq"><path d="M1662.39,229.1094 C1671.5,242.1594 1682.8,260.8094 1688,279.2094 C1704.935,339.1044 1707.1375,408.9469 1705.0075,464.4344 C1704.475,478.3063 1704.1379,485.2991 1703.2263,496.9968 " fill="none" id="prom-to-mq" style="stroke:#000000;stroke-width:1;"/><polygon fill="#000000" points="1702.7602,502.9787,1707.4473,494.3167,1703.1486,497.9938,1699.4715,493.6952,1702.7602,502.9787" style="stroke:#000000;stroke-width:1;"/><text fill="#000000" font-family="Verdana" font-size="13" lengthAdjust="spacing" textLength="197.8628" x="1706" y="385.9163">Scrape metrics (via exporters)</text></g><!--link prom to pg--><g id="link_prom_pg"><path d="M1701.44,212.0994 C1844.31,214.2794 2252.13,225.1494 2586,279.2094 C2885.68,327.7294 3061.65,207.8494 3248,447.4994 C3252.64,453.4694 3253.22,459.0394 3248,464.4994 C3241.32,471.4994 3083.59,471.1794 3074,472.4994 C2986.575,484.5444 2890.005,506.8144 2814.4713,526.3256 C2776.7044,536.0813 2744.1966,545.1472 2720.7205,551.9005 C2708.9824,555.2771 2699.5023,558.0756 2692.7517,560.093 C2691.9079,560.3452 2691.1067,560.5852 2690.3491,560.8126 C2689.9703,560.9262 2695.3481,559.3087 2694.9912,559.4161 " fill="none" id="prom-to-pg" style="stroke:#000000;stroke-width:1;"/><polygon fill="#000000" points="2689.2455,561.1441,2699.0162,562.3826,2694.0336,559.7041,2696.7121,554.7216,2689.2455,561.1441" style="stroke:#000000;stroke-width:1;"/><text fill="#000000" font-family="Verdana" font-size="13" lengthAdjust="spacing" textLength="254.0332" x="3236" y="385.9163">Scrape metrics (via postgres_exporter)</text></g><!--link prom to rd--><g id="link_prom_rd"><path d="M1701.36,212.1694 C1995.89,215.8594 3435.35,237.2894 3499,304.2094 C3540.44,347.7794 3529.37,387.6094 3499,439.4994 C3470.995,487.3594 3417.02,518.1819 3369.4238,537.1444 C3345.6256,546.6256 3323.4222,553.1419 3306.857,557.3403 C3298.5745,559.4395 3291.7014,560.9593 3286.7435,561.9805 C3286.5885,562.0124 3292.3136,560.8408 3292.1624,560.8717 " fill="none" id="prom-to-rd" style="stroke:#000000;stroke-width:1;"/><polygon fill="#000000" points="3286.2843,562.0748,3295.9035,564.189,3291.1827,561.0722,3294.2995,556.3514,3286.2843,562.0748" style="stroke:#000000;stroke-width:1;"/><text fill="#000000" font-family="Verdana" font-size="13" lengthAdjust="spacing" textLength="229.5693" x="3527" y="385.9163">Scrape metrics (via redis_exporter)</text></g><!--link prom to es--><g id="link_prom_es"><path d="M1596.51,214.4294 C1435.38,223.7494 955.76,255.3694 907,304.2094 C866.595,344.6744 858.2125,408.1569 860.1175,462.1956 C860.5938,475.7053 861.713,488.6248 863.1355,500.4468 C863.2245,501.1857 862.5709,495.9665 862.6621,496.6967 " fill="none" id="prom-to-es" style="stroke:#000000;stroke-width:1;"/><polygon fill="#000000" points="863.4058,502.6504,866.2595,493.2241,862.7861,497.689,858.3212,494.2156,863.4058,502.6504" style="stroke:#000000;stroke-width:1;"/><text fill="#000000" font-family="Verdana" font-size="13" lengthAdjust="spacing" textLength="97.7285" x="908" y="385.9163">Scrape metrics</text></g><!--link graf to prom--><g id="link_graf_prom"><path d="M1649,95.2594 C1649,120.4694 1649,160.7394 1649,185.9794 " fill="none" id="graf-to-prom" style="stroke:#000000;stroke-width:1;"/><polygon fill="#000000" points="1649,191.9794,1653,182.9794,1649,186.9794,1645,182.9794,1649,191.9794" style="stroke:#000000;stroke-width:1;"/><text fill="#000000" font-family="Verdana" font-size="13" lengthAdjust="spacing" textLength="261.2314" x="1650" y="137.9763">Query metrics and visualize dashboards</text></g><!--SRC=[TLJHRjiw37tNLt2-m9O-D7lUWEsYpPBU0YkMDUtJHH0e5kC8bILNahjsm_vzfEN4Zklb9Obv3dbuIFfDt6E9K1cfhGWFsbRIon9oLrREeesh-68GFEPHsiBW66JXR9mvupniZSmVnY2NzBpmhhOg0N_iTHpDTUcyGZ-UpRg8mqJ_BEZpuSCGzIgBY3fI7z-Uq4jZuCBdh22FjKTmEo0JuBgK1S8A9SNWeggCpcNKpWeXyqY9xWDwa05g-XRYw0Xa5yjheladdMF605bf-2K0_b_843dOIxPcm8wU4uWXytABIcbRj0bWSeVF4OwFmzcwJRd1SikC6unUvm7cLbLEsmYJfNSbKWTr3rmcbFXzelIB-s6Da-JDYM1bajwBy6BpreSEkawGZUGem-vlly8NLFMnANWBf4eg6IMio2hY7qY1_k90nR4vk49Bys1p-tAeqQHdzlLwURwL0LNF4DWHlD4OrYrwanjTCU5MRhSwtdo7cREXBgbD1dVSZj361yeE_4P6-PXKQAwrKQqV0Hvhh5D_vUD6cGw2dSOJ30-Ewh0zt0naInTYuJ4qPQgYLoO0OGokXxfGwOJsAg4lZNCbBBI9rEHCvljNdBcXBQCLQFOv-Hhw3VNKQglmUSZljYh9fB_zy9MNEsbb4olejn3lu1PDimzXhwiW-4xW_FnpSmyV8Vllxcu9tslqceHCS5fCuMf-1-yBZ9j6qh_acd-XbV6awjDqEZtB17Cv1r4e1RDV04zt8UXI6-aX6TXHM36Jvi-L8zVRYqYKt1FA5XbDnJJWPfICNjPReyCUXbEVqDQ_2x3moNOaRIsLHaAysHxpX_ShZ73WqDOIXzs5_hIEF1eyyVXUC5LZYUc89dB7SprawcgbRUhhZ38yfAQEja2HpeecaRtghxqC6Dtg38JedyUWve4xLYa9oSJX77jJk-RrQbxnTIHJKg_T43DUdHjdDJd1EQLLqBxaH3F3tWwjU737MMPTF3Ntrt3Rm5_ZTEklmZ1vqXAGjiVJCC9P3zwERWHUjQUzEV3wjBGfOpJF1pxAIHOEXGi-kPCjJwTnICeUFkbGIwD_8YWPzbidlGhP7m00]--></g></svg>